<svg width="30" height="31" viewBox="0 0 30 31" fill="none" xmlns="http://www.w3.org/2000/svg">
<path d="M26.25 5.77783C26.25 5.28055 26.0525 4.80364 25.7008 4.45201C25.3492 4.10038 24.8723 3.90283 24.375 3.90283C23.8777 3.90283 23.4008 4.10038 23.0492 4.45201C22.6975 4.80364 22.5 5.28055 22.5 5.77783C22.5 6.27511 22.6975 6.75203 23.0492 7.10366C23.4008 7.45529 23.8777 7.65283 24.375 7.65283C24.8723 7.65283 25.3492 7.45529 25.7008 7.10366C26.0525 6.75203 26.25 6.27511 26.25 5.77783ZM18.75 5.77783C18.75 4.28599 19.3426 2.85525 20.3975 1.80036C21.4524 0.745464 22.8832 0.152832 24.375 0.152832C25.8668 0.152832 27.2976 0.745464 28.3525 1.80036C29.4074 2.85525 30 4.28599 30 5.77783C30 7.26967 29.4074 8.70042 28.3525 9.75531C27.2976 10.8102 25.8668 11.4028 24.375 11.4028C22.8832 11.4028 21.4524 10.8102 20.3975 9.75531C19.3426 8.70042 18.75 7.26967 18.75 5.77783ZM8.4375 3.90283C6.88477 3.90283 5.625 5.1626 5.625 6.71533V16.354C5.625 17.3677 5.20898 18.2231 4.72852 18.8442C4.11328 19.6411 3.75 20.6313 3.75 21.7153C3.75 24.3052 5.84766 26.4028 8.4375 26.4028C11.0273 26.4028 13.125 24.3052 13.125 21.7153C13.125 20.6313 12.7617 19.6411 12.1465 18.8501C11.666 18.229 11.25 17.3735 11.25 16.3599V6.71533C11.25 5.1626 9.99023 3.90283 8.4375 3.90283ZM1.875 6.71533C1.875 3.09424 4.81055 0.152832 8.4375 0.152832C12.0645 0.152832 15 3.08838 15 6.71533V16.354C15 16.3599 15.0059 16.3716 15.0117 16.3892C15.0234 16.4243 15.0586 16.4829 15.1113 16.5532C16.2188 17.9829 16.875 19.7759 16.875 21.7153C16.875 26.3735 13.0957 30.1528 8.4375 30.1528C3.7793 30.1528 0 26.3735 0 21.7153C0 19.77 0.65625 17.9771 1.76367 16.5532C1.81641 16.4829 1.85156 16.4243 1.86328 16.3892C1.86914 16.3716 1.875 16.3599 1.875 16.354V6.71533ZM11.25 21.7153C11.25 23.2681 9.99023 24.5278 8.4375 24.5278C6.88477 24.5278 5.625 23.2681 5.625 21.7153C5.625 20.4907 6.41016 19.4478 7.5 19.061V16.0903C7.5 15.5747 7.92188 15.1528 8.4375 15.1528C8.95312 15.1528 9.375 15.5747 9.375 16.0903V19.061C10.4648 19.4478 11.25 20.4907 11.25 21.7153Z" fill="#059669"/>
</svg>
