<svg width="34" height="34" viewBox="0 0 34 34" fill="none" xmlns="http://www.w3.org/2000/svg">
<path fill-rule="evenodd" clip-rule="evenodd" d="M17 33.8652C19.2161 33.8652 21.4104 33.4384 23.4578 32.6092C25.5052 31.78 27.3654 30.5647 28.9324 29.0325C30.4994 27.5003 31.7424 25.6814 32.5905 23.6795C33.4385 21.6776 33.875 19.532 33.875 17.3652C33.875 15.1984 33.4385 13.0528 32.5905 11.051C31.7424 9.04909 30.4994 7.23014 28.9324 5.69797C27.3654 4.16581 25.5052 2.95042 23.4578 2.12122C21.4104 1.29202 19.2161 0.865234 17 0.865234C12.5245 0.865234 8.23225 2.60362 5.06757 5.69797C1.9029 8.79232 0.125 12.9892 0.125 17.3652C0.125 21.7413 1.9029 25.9381 5.06757 29.0325C8.23225 32.1268 12.5245 33.8652 17 33.8652ZM17 4.5319C17.4973 4.5319 17.9742 4.72506 18.3258 5.06887C18.6775 5.41269 18.875 5.879 18.875 6.36523V11.8652C18.875 12.3515 18.6775 12.8178 18.3258 13.1616C17.9742 13.5054 17.4973 13.6986 17 13.6986C16.5027 13.6986 16.0258 13.5054 15.6742 13.1616C15.3225 12.8178 15.125 12.3515 15.125 11.8652V6.36523C15.125 5.879 15.3225 5.41269 15.6742 5.06887C16.0258 4.72506 16.5027 4.5319 17 4.5319ZM23.63 8.29024C23.9816 7.94654 24.4584 7.75346 24.9556 7.75346C25.4528 7.75346 25.9296 7.94654 26.2813 8.29024C28.1167 10.0851 29.3666 12.3717 29.8729 14.8611C30.3792 17.3505 30.1192 19.9308 29.1258 22.2757C28.1324 24.6206 26.4501 26.6248 24.2917 28.0349C22.1334 29.445 19.5958 30.1976 17 30.1976C14.4042 30.1976 11.8666 29.445 9.70828 28.0349C7.54991 26.6248 5.86765 24.6206 4.87421 22.2757C3.88077 19.9308 3.62077 17.3505 4.1271 14.8611C4.63342 12.3717 5.88332 10.0851 7.71875 8.29024C8.07238 7.95628 8.54601 7.77149 9.03763 7.77566C9.52925 7.77984 9.99952 7.97265 10.3472 8.31257C10.6948 8.65248 10.892 9.1123 10.8963 9.593C10.9005 10.0737 10.7115 10.5368 10.37 10.8826C9.05913 12.1646 8.16649 13.798 7.80496 15.5761C7.44342 17.3542 7.62922 19.1972 8.33886 20.872C9.04851 22.5469 10.2501 23.9784 11.7918 24.9855C13.3334 25.9926 15.1459 26.5302 17 26.5302C18.8541 26.5302 20.6666 25.9926 22.2082 24.9855C23.7499 23.9784 24.9515 22.5469 25.6611 20.872C26.3708 19.1972 26.5566 17.3542 26.195 15.5761C25.8335 13.798 24.9409 12.1646 23.63 10.8826C23.2785 10.5388 23.081 10.0725 23.081 9.5864C23.081 9.10027 23.2785 8.63404 23.63 8.29024Z" fill="#2C993A"/>
</svg>
