<svg width="20" height="20" viewBox="0 0 20 20" fill="none" xmlns="http://www.w3.org/2000/svg">
<path fill-rule="evenodd" clip-rule="evenodd" d="M6.25 18.75C5.84 18.75 5.5 18.41 5.5 18V2C5.5 1.59 5.84 1.25 6.25 1.25C6.66 1.25 7 1.59 7 2V18C7 18.41 6.66 18.75 6.25 18.75ZM2.25 18.75C1.84 18.75 1.5 18.41 1.5 18V7C1.5 6.59 1.84 6.25 2.25 6.25C2.66 6.25 3 6.59 3 7V18C3 18.41 2.66 18.75 2.25 18.75ZM9.5 18C9.5 18.41 9.84 18.75 10.25 18.75C10.66 18.75 11 18.41 11 18V9C11 8.59 10.66 8.25 10.25 8.25C9.84 8.25 9.5 8.59 9.5 9V18ZM14.25 18.75C13.84 18.75 13.5 18.41 13.5 18V5C13.5 4.59 13.84 4.25 14.25 4.25C14.66 4.25 15 4.59 15 5V18C15 18.41 14.66 18.75 14.25 18.75ZM17.5 18C17.5 18.41 17.84 18.75 18.25 18.75C18.66 18.75 19 18.41 19 18V12C19 11.59 18.66 11.25 18.25 11.25C17.84 11.25 17.5 11.59 17.5 12V18Z" fill="#10B981" stroke="#10B981" stroke-width="1.5" stroke-linecap="round" stroke-linejoin="round"/>
</svg>
