<svg width="20" height="20" viewBox="0 0 20 20" fill="none" xmlns="http://www.w3.org/2000/svg">
<path d="M0 12.5C0 11.095 -1.19209e-07 10.393 0.337 9.889C0.482955 9.67053 0.670528 9.48296 0.889 9.337C1.393 9 2.096 9 3.5 9C4.904 9 5.607 9 6.111 9.337C6.32947 9.48296 6.51704 9.67053 6.663 9.889C7 10.393 7 11.096 7 12.5V16.5C7 17.904 7 18.607 6.663 19.111C6.51704 19.3295 6.32947 19.517 6.111 19.663C5.607 20 4.904 20 3.5 20C2.096 20 1.393 20 0.889 19.663C0.670528 19.517 0.482955 19.3295 0.337 19.111C-1.19209e-07 18.607 0 17.904 0 16.5V12.5Z" fill="#059669"/>
<path fill-rule="evenodd" clip-rule="evenodd" d="M20 8V12C20 15.771 20 17.657 18.828 18.828C17.656 19.999 15.771 20 12 20C10.3 20 8.985 20 7.944 19.893C8.279 19.368 8.398 18.811 8.45 18.295C8.5 17.804 8.5 17.211 8.5 16.566V12.434C8.5 11.789 8.5 11.196 8.45 10.705C8.396 10.172 8.27 9.595 7.91 9.055C7.65448 8.67303 7.32623 8.34513 6.944 8.09C6.404 7.73 5.828 7.604 5.294 7.55C4.86367 7.51338 4.43187 7.4967 4 7.5C4.002 4.06 4.053 2.29 5.172 1.172C6.343 -1.19209e-07 8.229 0 12 0C15.771 0 17.657 -1.19209e-07 18.828 1.172C19.999 2.344 20 4.229 20 8ZM9.25 17C9.25 16.8011 9.32902 16.6103 9.46967 16.4697C9.61032 16.329 9.80109 16.25 10 16.25H15C15.1989 16.25 15.3897 16.329 15.5303 16.4697C15.671 16.6103 15.75 16.8011 15.75 17C15.75 17.1989 15.671 17.3897 15.5303 17.5303C15.3897 17.671 15.1989 17.75 15 17.75H10C9.80109 17.75 9.61032 17.671 9.46967 17.5303C9.32902 17.3897 9.25 17.1989 9.25 17Z" fill="#059669"/>
</svg>
