<svg width="23" height="31" viewBox="0 0 23 31" fill="none" xmlns="http://www.w3.org/2000/svg">
<g filter="url(#filter0_d_1016_9683)">
<path d="M16.2918 22.6528C16.8668 20.7837 18.0588 19.1899 19.2387 17.6021C19.5502 17.186 19.8616 16.77 20.1611 16.3481C21.347 14.6782 22.0418 12.6567 22.0418 10.4712C22.0418 4.77002 17.322 0.152832 11.5002 0.152832C5.67829 0.152832 0.958496 4.77002 0.958496 10.4653C0.958496 12.6509 1.65329 14.6782 2.83923 16.3423C3.1387 16.7642 3.45016 17.1802 3.76162 17.5962C4.94756 19.1841 6.13949 20.7837 6.7085 22.647H16.2918V22.6528ZM11.5002 30.1528C14.1476 30.1528 16.2918 28.0552 16.2918 25.4653V24.5278H6.7085V25.4653C6.7085 28.0552 8.85277 30.1528 11.5002 30.1528ZM6.7085 10.4653C6.7085 10.981 6.27725 11.4028 5.75016 11.4028C5.22308 11.4028 4.79183 10.981 4.79183 10.4653C4.79183 6.83838 7.79261 3.90283 11.5002 3.90283C12.0272 3.90283 12.4585 4.32471 12.4585 4.84033C12.4585 5.35596 12.0272 5.77783 11.5002 5.77783C8.85277 5.77783 6.7085 7.87549 6.7085 10.4653Z" fill="#F59E0B"/>
</g>
<defs>
<filter id="filter0_d_1016_9683" x="-3.0415" y="0.152832" width="29.0835" height="38" filterUnits="userSpaceOnUse" color-interpolation-filters="sRGB">
<feFlood flood-opacity="0" result="BackgroundImageFix"/>
<feColorMatrix in="SourceAlpha" type="matrix" values="0 0 0 0 0 0 0 0 0 0 0 0 0 0 0 0 0 0 127 0" result="hardAlpha"/>
<feOffset dy="4"/>
<feGaussianBlur stdDeviation="2"/>
<feComposite in2="hardAlpha" operator="out"/>
<feColorMatrix type="matrix" values="0 0 0 0 0 0 0 0 0 0 0 0 0 0 0 0 0 0 0.25 0"/>
<feBlend mode="normal" in2="BackgroundImageFix" result="effect1_dropShadow_1016_9683"/>
<feBlend mode="normal" in="SourceGraphic" in2="effect1_dropShadow_1016_9683" result="shape"/>
</filter>
</defs>
</svg>
