<svg width="36" height="32" viewBox="0 0 36 32" fill="none" xmlns="http://www.w3.org/2000/svg">
<path d="M4 12L7 3H29L32 12M29 22C28.2044 22 27.4413 21.6839 26.8787 21.1213C26.3161 20.5587 26 19.7956 26 19C26 18.2044 26.3161 17.4413 26.8787 16.8787C27.4413 16.3161 28.2044 16 29 16C29.7956 16 30.5587 16.3161 31.1213 16.8787C31.6839 17.4413 32 18.2044 32 19C32 19.7956 31.6839 20.5587 31.1213 21.1213C30.5587 21.6839 29.7956 22 29 22ZM7 22C6.20435 22 5.44129 21.6839 4.87868 21.1213C4.31607 20.5587 4 19.7956 4 19C4 18.2044 4.31607 17.4413 4.87868 16.8787C5.44129 16.3161 6.20435 16 7 16C7.79565 16 8.55871 16.3161 9.12132 16.8787C9.68393 17.4413 10 18.2044 10 19C10 19.7956 9.68393 20.5587 9.12132 21.1213C8.55871 21.6839 7.79565 22 7 22ZM31.84 2C31.44 0.84 30.32 0 29 0H7C5.68 0 4.56 0.84 4.16 2L0 14V30C0 30.5304 0.210714 31.0391 0.585786 31.4142C0.960859 31.7893 1.46957 32 2 32H4C4.53043 32 5.03914 31.7893 5.41421 31.4142C5.78929 31.0391 6 30.5304 6 30V28H30V30C30 30.5304 30.2107 31.0391 30.5858 31.4142C30.9609 31.7893 31.4696 32 32 32H34C34.5304 32 35.0391 31.7893 35.4142 31.4142C35.7893 31.0391 36 30.5304 36 30V14L31.84 2Z" fill="#8B5CF6"/>
</svg>
