<svg width="14" height="16" viewBox="0 0 14 16" fill="none" xmlns="http://www.w3.org/2000/svg">
<path d="M10.2545 6.34461L7.2545 4.56961C7.17739 4.52411 7.08947 4.50016 6.99993 4.50024C6.9104 4.50033 6.82253 4.52446 6.7455 4.57011L3.7455 6.34511C3.67077 6.3893 3.60883 6.45219 3.56578 6.52759C3.52274 6.60299 3.50007 6.68829 3.5 6.77511V10.2251C3.5 10.4021 3.5935 10.5656 3.7455 10.6551L6.7455 12.4301C6.82239 12.4762 6.91035 12.5005 7 12.5005C7.08965 12.5005 7.17761 12.4762 7.2545 12.4301L10.2545 10.6551C10.3292 10.6109 10.3912 10.548 10.4342 10.4726C10.4773 10.3972 10.4999 10.3119 10.5 10.2251V6.77511C10.5 6.68821 10.4774 6.6028 10.4343 6.52731C10.3913 6.45181 10.3293 6.38885 10.2545 6.34461ZM9.5 9.94011L7 11.4191L4.5 9.94011V7.06011L7 5.58111L9.5 7.06011V9.94011Z" fill="#059669"/>
<path d="M2 10.092V5.535L5.1 3.703L4.5915 2.842L1.2455 4.8195C1.1707 4.86373 1.10871 4.9267 1.06566 5.00219C1.02261 5.07769 0.99998 5.1631 1 5.25V10.092C0.708546 10.195 0.456046 10.3856 0.277044 10.6377C0.0980419 10.8897 0.00128148 11.1909 0 11.5C0 12.327 0.673 13 1.5 13C2.327 13 3 12.327 3 11.5C2.99872 11.1909 2.90196 10.8897 2.72296 10.6377C2.54395 10.3856 2.29145 10.195 2 10.092ZM1.5 12C1.37126 11.9942 1.2497 11.939 1.16064 11.8459C1.07157 11.7528 1.02187 11.6289 1.02187 11.5C1.02187 11.3711 1.07157 11.2472 1.16064 11.1541C1.2497 11.061 1.37126 11.0058 1.5 11C1.62874 11.0058 1.7503 11.061 1.83936 11.1541C1.92843 11.2472 1.97813 11.3711 1.97813 11.5C1.97813 11.6289 1.92843 11.7528 1.83936 11.8459C1.7503 11.939 1.62874 11.9942 1.5 12ZM12.5 10C11.673 10 11 10.673 11 11.5C11 11.6765 11.036 11.8435 11.0925 12.001L7 14.419L3.798 12.527L3.2895 13.388L6.7455 15.43C6.82253 15.4757 6.9104 15.4998 6.99993 15.4999C7.08947 15.5 7.17739 15.476 7.2545 15.4305L11.7345 12.783C11.9595 12.9175 12.2195 13 12.5 13C13.327 13 14 12.327 14 11.5C14 10.673 13.327 10 12.5 10ZM12.5 12C12.3713 11.9942 12.2497 11.939 12.1606 11.8459C12.0716 11.7528 12.0219 11.6289 12.0219 11.5C12.0219 11.3711 12.0716 11.2472 12.1606 11.1541C12.2497 11.061 12.3713 11.0058 12.5 11C12.6287 11.0058 12.7503 11.061 12.8394 11.1541C12.9284 11.2472 12.9781 11.3711 12.9781 11.5C12.9781 11.6289 12.9284 11.7528 12.8394 11.8459C12.7503 11.939 12.6287 11.9942 12.5 12ZM7 3.5C7.3655 3.5 7.696 3.3635 7.9565 3.146L12 5.5355V9H13V5.25C13 5.1631 12.9774 5.07769 12.9343 5.00219C12.8913 4.9267 12.8293 4.86373 12.7545 4.8195L8.471 2.2885C8.48967 2.19517 8.49933 2.099 8.5 2C8.5 1.173 7.827 0.5 7 0.5C6.173 0.5 5.5 1.173 5.5 2C5.5 2.827 6.173 3.5 7 3.5ZM7 1.5C7.09903 1.4999 7.19587 1.52918 7.27825 1.58414C7.36063 1.6391 7.42486 1.71726 7.46281 1.80874C7.50075 1.90021 7.5107 2.00089 7.49141 2.09802C7.47211 2.19515 7.42443 2.28438 7.35441 2.35441C7.28438 2.42443 7.19515 2.47211 7.09802 2.49141C7.00089 2.5107 6.90021 2.50075 6.80874 2.46281C6.71726 2.42486 6.6391 2.36063 6.58414 2.27825C6.52918 2.19587 6.4999 2.09903 6.5 2C6.5 1.724 6.7245 1.5 7 1.5Z" fill="#059669"/>
</svg>
