<svg width="36" height="35" viewBox="0 0 36 35" fill="none" xmlns="http://www.w3.org/2000/svg">
<path d="M20.1379 2.4704C20.1379 3.65643 21.0961 4.61463 22.2822 4.61463H24.4264C25.6124 4.61463 26.5706 5.57284 26.5706 6.75886C26.5706 7.94489 25.6124 8.9031 24.4264 8.9031H2.98407C1.79805 8.9031 0.839844 9.8613 0.839844 11.0473C0.839844 12.2334 1.79805 13.1916 2.98407 13.1916H24.4264C27.9778 13.1916 30.8591 10.3102 30.8591 6.75886C30.8591 3.20748 27.9778 0.326172 24.4264 0.326172H22.2822C21.0961 0.326172 20.1379 1.28437 20.1379 2.4704ZM24.4264 26.0569C24.4264 27.243 25.3846 28.2012 26.5706 28.2012H28.7148C32.2662 28.2012 35.1475 25.3199 35.1475 21.7685C35.1475 18.2171 32.2662 15.3358 28.7148 15.3358H2.98407C1.79805 15.3358 0.839844 16.294 0.839844 17.48C0.839844 18.666 1.79805 19.6242 2.98407 19.6242H28.7148C29.9009 19.6242 30.8591 20.5825 30.8591 21.7685C30.8591 22.9545 29.9009 23.9127 28.7148 23.9127H26.5706C25.3846 23.9127 24.4264 24.8709 24.4264 26.0569ZM9.41677 34.6339H11.561C15.1124 34.6339 17.9937 31.7526 17.9937 28.2012C17.9937 24.6498 15.1124 21.7685 11.561 21.7685H2.98407C1.79805 21.7685 0.839844 22.7267 0.839844 23.9127C0.839844 25.0987 1.79805 26.0569 2.98407 26.0569H11.561C12.747 26.0569 13.7052 27.0151 13.7052 28.2012C13.7052 29.3872 12.747 30.3454 11.561 30.3454H9.41677C8.23074 30.3454 7.27254 31.3036 7.27254 32.4896C7.27254 33.6757 8.23074 34.6339 9.41677 34.6339Z" fill="#374151"/>
</svg>
