<svg width="21" height="24" viewBox="0 0 21 24" fill="none" xmlns="http://www.w3.org/2000/svg">
<path d="M6.08426 1.11686L5.76263 1.75566H1.47416C0.68348 1.75566 0.0446777 2.39446 0.0446777 3.18515C0.0446777 3.97583 0.68348 4.61463 1.47416 4.61463H18.628C19.4187 4.61463 20.0575 3.97583 20.0575 3.18515C20.0575 2.39446 19.4187 1.75566 18.628 1.75566H14.3396L14.0179 1.11686C13.7767 0.629938 13.2808 0.326172 12.7403 0.326172H7.36187C6.82134 0.326172 6.32549 0.629938 6.08426 1.11686ZM18.628 6.04412H1.47416L2.4212 21.1878C2.49267 22.3179 3.43078 23.198 4.56096 23.198H15.5412C16.6714 23.198 17.6095 22.3179 17.681 21.1878L18.628 6.04412Z" fill="#DC2626"/>
</svg>
