<svg width="26" height="34" viewBox="0 0 26 34" fill="none" xmlns="http://www.w3.org/2000/svg">
<path d="M20.7946 3.40585C21.173 2.52722 20.8908 1.50109 20.1148 0.936715C19.3388 0.372342 18.2806 0.423649 17.5559 1.05216L1.13775 15.418C0.496414 15.9824 0.265534 16.8867 0.56696 17.6819C0.868387 18.4772 1.63799 19.0159 2.49096 19.0159H9.64182L4.70997 30.5214C4.33158 31.4 4.61377 32.4262 5.38978 32.9905C6.1658 33.5549 7.224 33.5036 7.9487 32.8751L24.3668 18.5092C25.0082 17.9449 25.239 17.0406 24.9376 16.2453C24.6362 15.4501 23.873 14.9178 23.0136 14.9178H15.8628L20.7946 3.40585Z" fill="#3B82F6"/>
</svg>
