<svg width="43" height="43" viewBox="0 0 43 43" fill="none" xmlns="http://www.w3.org/2000/svg">
<g clip-path="url(#clip0_1086_10792)">
<path d="M5.60965 5.96645C5.60965 4.52738 4.44702 3.36475 3.00795 3.36475C1.56889 3.36475 0.40625 4.52738 0.40625 5.96645V33.2843C0.40625 36.8779 3.3169 39.7886 6.9105 39.7886H39.4318C40.8708 39.7886 42.0335 38.6259 42.0335 37.1869C42.0335 35.7478 40.8708 34.5852 39.4318 34.5852H6.9105C6.19504 34.5852 5.60965 33.9998 5.60965 33.2843V5.96645ZM38.6675 13.0073C39.6838 11.991 39.6838 10.3406 38.6675 9.32427C37.6512 8.30798 36.0008 8.30798 34.9845 9.32427L26.4233 17.8936L21.7565 13.2268C20.7402 12.2105 19.0897 12.2105 18.0734 13.2268L8.96747 22.3328C7.95118 23.3491 7.95118 24.9995 8.96747 26.0158C9.98376 27.0321 11.6342 27.0321 12.6505 26.0158L19.919 18.7554L24.5858 23.4222C25.6021 24.4385 27.2526 24.4385 28.2688 23.4222L38.6757 13.0154L38.6675 13.0073Z" fill="#10B981"/>
</g>
<defs>
<clipPath id="clip0_1086_10792">
<path d="M0.405273 0.763184H42.0325V42.3904H0.405273V0.763184Z" fill="white"/>
</clipPath>
</defs>
</svg>
