<svg width="25" height="34" viewBox="0 0 25 34" fill="none" xmlns="http://www.w3.org/2000/svg">
<path d="M6.27762 0.541992C5.14233 0.541992 4.22512 1.4592 4.22512 2.59449V8.75199H8.33012V2.59449C8.33012 1.4592 7.41291 0.541992 6.27762 0.541992ZM18.5926 0.541992C17.4573 0.541992 16.5401 1.4592 16.5401 2.59449V8.75199H20.6451V2.59449C20.6451 1.4592 19.7279 0.541992 18.5926 0.541992ZM2.17262 10.8045C1.03733 10.8045 0.120117 11.7217 0.120117 12.857C0.120117 13.9923 1.03733 14.9095 2.17262 14.9095V16.962C2.17262 21.9265 5.70035 26.07 10.3826 27.0192V31.3295C10.3826 32.4648 11.2998 33.382 12.4351 33.382C13.5704 33.382 14.4876 32.4648 14.4876 31.3295V27.0192C19.1699 26.07 22.6976 21.9265 22.6976 16.962V14.9095C23.8329 14.9095 24.7501 13.9923 24.7501 12.857C24.7501 11.7217 23.8329 10.8045 22.6976 10.8045H2.17262Z" fill="#3B82F6"/>
</svg>
