<svg width="24" height="22" viewBox="0 0 24 22" fill="none" xmlns="http://www.w3.org/2000/svg">
<path d="M23.87 10.5252C23.941 10.5382 24 10.6092 24 10.6822V13.7152C23.9989 13.7521 23.9855 13.7876 23.9619 13.816C23.9384 13.8445 23.906 13.8642 23.87 13.8722L20.995 14.4072C20.9564 14.4164 20.9207 14.435 20.891 14.4613C20.8613 14.4877 20.8386 14.521 20.825 14.5582L19.927 16.8002C19.9113 16.837 19.9047 16.8769 19.9077 16.9168C19.9106 16.9566 19.9231 16.9952 19.944 17.0292L21.577 19.4082C21.5963 19.4398 21.6048 19.4768 21.6012 19.5136C21.5976 19.5504 21.5821 19.585 21.557 19.6122L19.413 21.7562C19.3858 21.7809 19.3513 21.7961 19.3147 21.7995C19.2781 21.803 19.2413 21.7944 19.21 21.7752L16.872 20.1712C16.8384 20.1509 16.8002 20.1395 16.761 20.1381C16.7218 20.1367 16.6829 20.1453 16.648 20.1632L15.618 20.7132C15.603 20.7215 15.5864 20.7265 15.5693 20.7278C15.5522 20.7291 15.535 20.7268 15.5189 20.7209C15.5028 20.715 15.4881 20.7058 15.4759 20.6937C15.4637 20.6817 15.4542 20.6672 15.448 20.6512L13.323 15.5162C13.3097 15.482 13.3086 15.4442 13.3199 15.4092C13.3312 15.3743 13.3542 15.3442 13.385 15.3242L13.643 15.1662C13.691 15.1362 13.756 15.0862 13.806 15.0412C14.4173 14.6506 14.8854 14.0724 15.1402 13.3932C15.3951 12.714 15.4228 11.9705 15.2194 11.2742C15.0159 10.5779 14.5922 9.96635 14.0117 9.53126C13.4313 9.09616 12.7254 8.86097 12 8.86097C11.2746 8.86097 10.5687 9.09616 9.98829 9.53126C9.40784 9.96635 8.98411 10.5779 8.78064 11.2742C8.57717 11.9705 8.60493 12.714 8.85975 13.3932C9.11458 14.0724 9.58273 14.6506 10.194 15.0412C10.244 15.0872 10.309 15.1372 10.357 15.1662L10.615 15.3242C10.6458 15.3442 10.6688 15.3743 10.6801 15.4092C10.6914 15.4442 10.6903 15.482 10.677 15.5162L8.552 20.6502C8.54595 20.6663 8.53651 20.6809 8.52433 20.693C8.51214 20.7052 8.4975 20.7145 8.48138 20.7205C8.46526 20.7265 8.44804 20.7289 8.43089 20.7277C8.41375 20.7264 8.39708 20.7215 8.382 20.7132L7.352 20.1632C7.31716 20.1452 7.2783 20.1364 7.23909 20.1376C7.19988 20.1388 7.16164 20.15 7.128 20.1702L4.79 21.7752C4.75856 21.7947 4.72163 21.8033 4.68482 21.7999C4.648 21.7965 4.61331 21.7811 4.586 21.7562L2.441 19.6122C2.41608 19.5849 2.40074 19.5502 2.39732 19.5134C2.39389 19.4766 2.40255 19.4397 2.422 19.4082L4.055 17.0282C4.07576 16.9943 4.08813 16.9559 4.09109 16.9163C4.09405 16.8766 4.0875 16.8368 4.072 16.8002L3.175 14.5582C3.16122 14.5211 3.13849 14.488 3.10883 14.4619C3.07917 14.4357 3.0435 14.4173 3.005 14.4082L0.13 13.8712C0.0939587 13.8632 0.0616087 13.8435 0.0380648 13.815C0.0145209 13.7866 0.00112672 13.7511 0 13.7142L0 10.6822C0 10.6092 0.059 10.5382 0.13 10.5252L3.077 9.97722C3.11606 9.96809 3.15236 9.9497 3.18282 9.92359C3.21328 9.89748 3.23701 9.86443 3.252 9.82722L4.155 7.71922C4.17078 7.68297 4.17774 7.6435 4.17531 7.60403C4.17287 7.56457 4.16112 7.52625 4.141 7.49222L2.424 4.98922C2.40479 4.95788 2.39626 4.92115 2.39969 4.88455C2.40312 4.84796 2.41831 4.81345 2.443 4.78622L4.587 2.64022C4.61398 2.61469 4.64874 2.59894 4.68572 2.59549C4.7227 2.59205 4.75977 2.60111 4.791 2.62122L7.337 4.37022C7.397 4.41122 7.5 4.41822 7.566 4.38622L9.609 3.55022C9.679 3.52722 9.746 3.45022 9.759 3.37722L10.326 0.330219C10.3344 0.294307 10.3543 0.262107 10.3826 0.238476C10.4109 0.214845 10.4462 0.201066 10.483 0.199219H13.517C13.59 0.199219 13.66 0.258219 13.674 0.329219L14.241 3.37722C14.2504 3.41592 14.2689 3.45181 14.295 3.4819C14.3211 3.51199 14.354 3.53542 14.391 3.55022L16.434 4.38622C16.4708 4.40221 16.5109 4.4091 16.551 4.40632C16.591 4.40353 16.6298 4.39115 16.664 4.37022L19.21 2.62222C19.2412 2.60249 19.2782 2.59374 19.3149 2.59736C19.3517 2.60098 19.3862 2.61677 19.413 2.64222L21.557 4.78622C21.609 4.83722 21.617 4.92922 21.577 4.98922L19.859 7.49222C19.8389 7.52625 19.8271 7.56457 19.8247 7.60403C19.8223 7.6435 19.8292 7.68297 19.845 7.71922L20.748 9.82722C20.7637 9.86399 20.7876 9.89665 20.818 9.92267C20.8483 9.94868 20.8843 9.96735 20.923 9.97722L23.87 10.5252Z" fill="#10B981"/>
</svg>
