<svg width="30" height="28" viewBox="0 0 30 28" fill="none" xmlns="http://www.w3.org/2000/svg">
<path d="M21.1875 0.365234C23.6875 0.365234 25.7815 1.29023 27.4695 3.14023C29.1575 4.99023 30.001 7.19023 30 9.74023C30 10.1902 29.975 10.6342 29.925 11.0722C29.875 11.5102 29.7875 11.9412 29.6625 12.3652H20.2875L17.7375 8.54023C17.6125 8.34023 17.4375 8.17773 17.2125 8.05273C16.9875 7.92773 16.75 7.86523 16.5 7.86523C16.175 7.86523 15.8815 7.96523 15.6195 8.16523C15.3575 8.36523 15.176 8.61523 15.075 8.91523L13.05 14.9902L11.7375 13.0402C11.6125 12.8402 11.4375 12.6777 11.2125 12.5527C10.9875 12.4277 10.75 12.3652 10.5 12.3652H0.3375C0.2125 11.9402 0.125 11.5092 0.0749999 11.0722C0.0249999 10.6352 0 10.2037 0 9.77773C0 7.20273 0.8375 4.99023 2.5125 3.14023C4.1875 1.29023 6.275 0.365234 8.775 0.365234C9.975 0.365234 11.1065 0.602734 12.1695 1.07773C13.2325 1.55273 14.176 2.21523 15 3.06523C15.8 2.21523 16.7315 1.55273 17.7945 1.07773C18.8575 0.602734 19.9885 0.365234 21.1875 0.365234ZM15 27.3652C14.55 27.3652 14.119 27.2842 13.707 27.1222C13.295 26.9602 12.926 26.7162 12.6 26.3902L2.55 16.3027C2.4 16.1527 2.2625 16.0027 2.1375 15.8527C2.0125 15.7027 1.8875 15.5402 1.7625 15.3652H9.675L12.225 19.1902C12.35 19.3902 12.525 19.5527 12.75 19.6777C12.975 19.8027 13.2125 19.8652 13.4625 19.8652C13.7875 19.8652 14.0875 19.7652 14.3625 19.5652C14.6375 19.3652 14.825 19.1152 14.925 18.8152L16.95 12.7402L18.225 14.6902C18.375 14.8902 18.5625 15.0527 18.7875 15.1777C19.0125 15.3027 19.25 15.3652 19.5 15.3652H28.2L27.825 15.8152L27.45 16.2652L17.3625 26.3902C17.0375 26.7152 16.675 26.9592 16.275 27.1222C15.875 27.2852 15.45 27.3662 15 27.3652Z" fill="#DC2626"/>
</svg>
