<svg width="40" height="40" viewBox="0 0 40 40" fill="none" xmlns="http://www.w3.org/2000/svg">
<path d="M20.25 0.78125C31.0658 0.78125 39.8333 9.54871 39.8333 20.3646C39.8333 31.1805 31.0658 39.9479 20.25 39.9479C9.43408 39.9479 0.666626 31.1805 0.666626 20.3646C0.666626 9.54871 9.43408 0.78125 20.25 0.78125ZM20.25 26.2396C19.7306 26.2396 19.2325 26.4459 18.8652 26.8132C18.4979 27.1804 18.2916 27.6785 18.2916 28.1979C18.2916 28.7173 18.4979 29.2154 18.8652 29.5827C19.2325 29.9499 19.7306 30.1562 20.25 30.1562C20.7693 30.1562 21.2675 29.9499 21.6347 29.5827C22.002 29.2154 22.2083 28.7173 22.2083 28.1979C22.2083 27.6785 22.002 27.1804 21.6347 26.8132C21.2675 26.4459 20.7693 26.2396 20.25 26.2396ZM20.25 8.61458C19.7703 8.61465 19.3073 8.79075 18.9489 9.10948C18.5905 9.42822 18.3615 9.86742 18.3053 10.3438L18.2916 10.5729V22.3229C18.2922 22.8221 18.4833 23.3021 18.826 23.6651C19.1686 24.028 19.6369 24.2465 20.1352 24.2757C20.6335 24.305 21.1241 24.1428 21.5069 23.8225C21.8896 23.5021 22.1356 23.0477 22.1946 22.552L22.2083 22.3229V10.5729C22.2083 10.0535 22.002 9.55543 21.6347 9.18817C21.2675 8.82091 20.7693 8.61458 20.25 8.61458Z" fill="#FF9F40"/>
</svg>
