<svg width="39" height="34" viewBox="0 0 39 34" fill="none" xmlns="http://www.w3.org/2000/svg">
<path d="M20.7712 5.23913C15.0105 5.23913 10.1366 9.01363 8.48021 14.2173C10.9428 12.9714 13.7205 12.2751 16.6668 12.2751H23.1165C23.7614 12.2751 24.2891 12.8028 24.2891 13.4477C24.2891 14.0927 23.7614 14.6204 23.1165 14.6204H21.9438H16.6668C15.4502 14.6204 14.2702 14.7597 13.1342 15.0162C11.236 15.4486 9.46965 16.2182 7.90121 17.2662C3.64299 20.1026 0.835938 24.9471 0.835938 30.4513V31.624C0.835938 32.5988 1.62015 33.383 2.59493 33.383C3.5697 33.383 4.35392 32.5988 4.35392 31.624V30.4513C4.35392 26.882 5.87105 23.6719 8.29699 21.4218C9.74815 26.9553 14.7833 31.0376 20.7712 31.0376H20.8444C30.5262 30.9863 38.3611 21.4438 38.3611 9.68058C38.3611 6.55837 37.8114 3.59007 36.8146 0.914942C36.6241 0.409233 35.8838 0.43122 35.6273 0.907613C34.2494 3.48747 31.523 5.23913 28.3934 5.23913H20.7712Z" fill="#10B981"/>
</svg>
