<svg width="16" height="21" viewBox="0 0 16 21" fill="none" xmlns="http://www.w3.org/2000/svg">
<path d="M8.6777 20.21C10.7415 17.6272 15.4485 11.3673 15.4485 7.85119C15.4485 3.58677 11.9887 0.126953 7.72424 0.126953C3.45982 0.126953 0 3.58677 0 7.85119C0 11.3673 4.70696 17.6272 6.77078 20.21C7.26561 20.8255 8.18287 20.8255 8.6777 20.21ZM7.72424 5.27645C8.40711 5.27645 9.062 5.54771 9.54486 6.03057C10.0277 6.51343 10.299 7.16833 10.299 7.85119C10.299 8.53406 10.0277 9.18896 9.54486 9.67181C9.062 10.1547 8.40711 10.4259 7.72424 10.4259C7.04137 10.4259 6.38648 10.1547 5.90362 9.67181C5.42076 9.18896 5.14949 8.53406 5.14949 7.85119C5.14949 7.16833 5.42076 6.51343 5.90362 6.03057C6.38648 5.54771 7.04137 5.27645 7.72424 5.27645Z" fill="#374151"/>
</svg>
