<svg width="22" height="20" viewBox="0 0 22 20" fill="none" xmlns="http://www.w3.org/2000/svg">
<path fill-rule="evenodd" clip-rule="evenodd" d="M15.1246 10.0001C15.1246 9.80121 15.0456 9.61044 14.9049 9.46979C14.7643 9.32914 14.5735 9.25012 14.3746 9.25012H3.40158L5.36258 7.57012C5.43743 7.50603 5.49893 7.42783 5.54356 7.33998C5.5882 7.25213 5.61509 7.15635 5.6227 7.0581C5.63031 6.95986 5.6185 6.86108 5.58794 6.7674C5.55738 6.67372 5.50867 6.58697 5.44458 6.51212C5.3805 6.43727 5.3023 6.37577 5.21444 6.33114C5.12659 6.28651 5.03081 6.25961 4.93256 6.252C4.83432 6.24439 4.73554 6.2562 4.64186 6.28676C4.54818 6.31732 4.46143 6.36603 4.38658 6.43012L0.886581 9.43012C0.804246 9.50053 0.738143 9.58794 0.692818 9.68634C0.647493 9.78473 0.624023 9.89178 0.624023 10.0001C0.624023 10.1085 0.647493 10.2155 0.692818 10.3139C0.738143 10.4123 0.804246 10.4997 0.886581 10.5701L4.38658 13.5701C4.53775 13.6995 4.73415 13.7636 4.93256 13.7482C5.13098 13.7329 5.31516 13.6393 5.44458 13.4881C5.57401 13.3369 5.63808 13.1405 5.6227 12.9421C5.60732 12.7437 5.51375 12.5595 5.36258 12.4301L3.40258 10.7501H14.3746C14.5735 10.7501 14.7643 10.6711 14.9049 10.5304C15.0456 10.3898 15.1246 10.199 15.1246 10.0001Z" fill="#059669"/>
<path d="M8.375 6C8.375 6.702 8.375 7.053 8.544 7.306C8.61679 7.41478 8.71022 7.50821 8.819 7.581C9.072 7.75 9.423 7.75 10.125 7.75H14.375C14.9717 7.75 15.544 7.98705 15.966 8.40901C16.3879 8.83097 16.625 9.40326 16.625 10C16.625 10.5967 16.3879 11.169 15.966 11.591C15.544 12.0129 14.9717 12.25 14.375 12.25H10.125C9.423 12.25 9.072 12.25 8.819 12.418C8.71012 12.4911 8.61668 12.5849 8.544 12.694C8.375 12.947 8.375 13.298 8.375 14C8.375 16.828 8.375 18.243 9.254 19.121C10.132 20 11.546 20 14.374 20H15.374C18.204 20 19.617 20 20.496 19.121C21.375 18.243 21.375 16.828 21.375 14V6C21.375 3.172 21.375 1.757 20.496 0.879C19.617 0.000999928 18.203 0 15.375 0H14.375C11.546 0 10.132 -5.96046e-08 9.254 0.879C8.375 1.757 8.375 3.172 8.375 6Z" fill="#059669"/>
</svg>
