<svg width="64" height="52" viewBox="0 0 64 52" fill="none" xmlns="http://www.w3.org/2000/svg">
<path d="M57.3335 0.666504H6.66683C3.1835 0.666504 0.365163 3.5165 0.365163 6.99984L0.333496 44.9998C0.333496 48.4832 3.1835 51.3332 6.66683 51.3332H57.3335C60.8168 51.3332 63.6668 48.4832 63.6668 44.9998V6.99984C63.6668 3.5165 60.8168 0.666504 57.3335 0.666504ZM56.0668 14.1248L33.6785 28.1215C32.6652 28.7548 31.3352 28.7548 30.3218 28.1215L7.9335 14.1248C7.61597 13.9466 7.33791 13.7058 7.11614 13.4169C6.89438 13.1281 6.73353 12.7973 6.64332 12.4445C6.55311 12.0917 6.53542 11.7243 6.59132 11.3645C6.64723 11.0047 6.77556 10.6599 6.96855 10.3511C7.16155 10.0423 7.41519 9.77591 7.71413 9.56799C8.01307 9.36006 8.35109 9.21496 8.70773 9.14145C9.06437 9.06794 9.43223 9.06757 9.78902 9.14034C10.1458 9.21311 10.4841 9.35753 10.7835 9.56484L32.0002 22.8332L53.2168 9.56484C53.5162 9.35753 53.8545 9.21311 54.2113 9.14034C54.5681 9.06757 54.9359 9.06794 55.2926 9.14145C55.6492 9.21496 55.9873 9.36006 56.2862 9.56799C56.5851 9.77591 56.8388 10.0423 57.0318 10.3511C57.2248 10.6599 57.3531 11.0047 57.409 11.3645C57.4649 11.7243 57.4472 12.0917 57.357 12.4445C57.2668 12.7973 57.1059 13.1281 56.8842 13.4169C56.6624 13.7058 56.3844 13.9466 56.0668 14.1248Z" fill="white"/>
</svg>
