<svg width="29" height="29" viewBox="0 0 29 29" fill="none" xmlns="http://www.w3.org/2000/svg">
<path fill-rule="evenodd" clip-rule="evenodd" d="M9.00003 0.78125C13.9706 0.78125 18 4.69879 18 9.53125C18 10.4152 17.8652 11.2685 17.6144 12.0729L27 21.1979C28.6569 22.8088 28.6569 25.4204 27 27.0312C25.3432 28.6421 22.6568 28.6421 21.0001 27.0312L11.6143 17.9064C10.787 18.1501 9.90924 18.2812 9.00003 18.2812C4.0295 18.2812 3.05176e-05 14.3637 3.05176e-05 9.53125C3.05176e-05 8.59869 0.150078 7.70018 0.428023 6.85737L4.6853 10.9896L8.90504 9.62326L9.09348 9.44006L10.5 5.34137L6.2378 1.20118C7.10813 0.928565 8.0364 0.78125 9.00003 0.78125Z" fill="#F59E0B"/>
</svg>
