<svg width="16" height="21" viewBox="0 0 16 21" fill="none" xmlns="http://www.w3.org/2000/svg">
<path d="M13.056 1.92159C13.2933 1.37044 13.1163 0.72675 12.6295 0.372723C12.1427 0.018695 11.4789 0.0508793 11.0243 0.445137L0.725335 9.45675C0.323031 9.81078 0.178202 10.378 0.367285 10.8769C0.556368 11.3757 1.03913 11.7137 1.5742 11.7137H6.05989L2.96617 18.931C2.72881 19.4822 2.90582 20.1259 3.39261 20.4799C3.8794 20.8339 4.5432 20.8017 4.99781 20.4075L15.2968 11.3959C15.6991 11.0418 15.8439 10.4746 15.6548 9.97572C15.4658 9.47687 14.987 9.14295 14.4479 9.14295H9.96224L13.056 1.92159Z" fill="#374151"/>
</svg>
