<svg width="15" height="15" viewBox="0 0 15 15" fill="none" xmlns="http://www.w3.org/2000/svg">
<g clip-path="url(#clip0_1622_3604)">
<path d="M7.70685 0.00313275C7.60766 0.00030556 7.50988 0.0270549 7.42594 0.079976C7.342 0.132897 7.27571 0.209597 7.2355 0.300312C7.19529 0.391027 7.18298 0.491655 7.20014 0.589388C7.2173 0.687121 7.26315 0.777539 7.33185 0.849133C8.2196 1.77469 8.78743 2.96034 8.95206 4.23221C9.11669 5.50408 8.86946 6.79524 8.24662 7.91632C7.62378 9.03741 6.65812 9.92943 5.49125 10.4616C4.32437 10.9937 3.0177 11.1379 1.76285 10.8731C1.66591 10.853 1.56516 10.8621 1.47339 10.8993C1.38162 10.9364 1.30296 11 1.24737 11.082C1.19178 11.1639 1.16177 11.2605 1.16114 11.3595C1.16052 11.4585 1.1893 11.5555 1.24385 11.6381C1.95468 12.7127 2.93034 13.586 4.07677 14.1739C5.22321 14.7618 6.50177 15.0445 7.78919 14.9946C9.07662 14.9448 10.3295 14.5642 11.4271 13.8894C12.5246 13.2146 13.4298 12.2685 14.0555 11.1422C14.6811 10.0159 15.006 8.74743 14.999 7.45906C14.9919 6.17069 14.653 4.90587 14.0151 3.78651C13.3771 2.66716 12.4615 1.73103 11.3566 1.06836C10.2517 0.405687 8.99475 0.0388238 7.70685 0.00313275Z" fill="black"/>
</g>
<defs>
<clipPath id="clip0_1622_3604">
<rect width="15" height="15" fill="white"/>
</clipPath>
</defs>
</svg>
