<svg width="37" height="32" viewBox="0 0 37 32" fill="none" xmlns="http://www.w3.org/2000/svg">
<path d="M15.1666 0.896484C13.3432 0.896484 11.5945 1.63727 10.3052 2.95589C9.01591 4.2745 8.29159 6.06293 8.29159 7.92773C8.29159 9.79254 9.01591 11.581 10.3052 12.8996C11.5945 14.2182 13.3432 14.959 15.1666 14.959C16.9899 14.959 18.7386 14.2182 20.0279 12.8996C21.3173 11.581 22.0416 9.79254 22.0416 7.92773C22.0416 6.06293 21.3173 4.2745 20.0279 2.95589C18.7386 1.63727 16.9899 0.896484 15.1666 0.896484ZM7.83325 18.709C6.00989 18.709 4.26121 19.4498 2.97189 20.7684C1.68258 22.087 0.958252 23.8754 0.958252 25.7402V27.9677C0.958252 29.3815 1.95925 30.5852 3.32325 30.8121C11.1663 32.1227 19.1669 32.1227 27.0099 30.8121C27.6696 30.7011 28.2693 30.3543 28.7024 29.8335C29.1355 29.3126 29.3738 28.6515 29.3749 27.9677V25.7402C29.3749 23.8754 28.6506 22.087 27.3613 20.7684C26.072 19.4498 24.3233 18.709 22.4999 18.709H21.8766C21.5344 18.7102 21.2019 18.764 20.8793 18.8702L19.2916 19.4009C16.6112 20.2958 13.722 20.2958 11.0416 19.4009L9.45392 18.8702C9.13212 18.7647 8.79637 18.7103 8.45842 18.709H7.83325ZM30.7499 5.58398C31.1146 5.58398 31.4643 5.73214 31.7222 5.99587C31.9801 6.25959 32.1249 6.61727 32.1249 6.99023V10.2715H35.3333C35.6979 10.2715 36.0477 10.4196 36.3055 10.6834C36.5634 10.9471 36.7083 11.3048 36.7083 11.6777C36.7083 12.0507 36.5634 12.4084 36.3055 12.6721C36.0477 12.9358 35.6979 13.084 35.3333 13.084H32.1249V16.3652C32.1249 16.7382 31.9801 17.0959 31.7222 17.3596C31.4643 17.6233 31.1146 17.7715 30.7499 17.7715C30.3852 17.7715 30.0355 17.6233 29.7776 17.3596C29.5198 17.0959 29.3749 16.7382 29.3749 16.3652V13.084H26.1666C25.8019 13.084 25.4522 12.9358 25.1943 12.6721C24.9365 12.4084 24.7916 12.0507 24.7916 11.6777C24.7916 11.3048 24.9365 10.9471 25.1943 10.6834C25.4522 10.4196 25.8019 10.2715 26.1666 10.2715H29.3749V6.99023C29.3749 6.61727 29.5198 6.25959 29.7776 5.99587C30.0355 5.73214 30.3852 5.58398 30.7499 5.58398Z" fill="#5388D8"/>
</svg>
