<svg width="19" height="23" viewBox="0 0 19 23" fill="none" xmlns="http://www.w3.org/2000/svg">
<path d="M9.58351 0.833984C8.84601 0.833984 8.25018 1.42982 8.25018 2.16732V2.96732C5.20851 3.58398 2.91685 6.27565 2.91685 9.50065V10.284C2.91685 12.2423 2.19601 14.134 0.896012 15.6007L0.587679 15.9465C0.237679 16.3382 0.154346 16.9007 0.366846 17.3798C0.579346 17.859 1.05851 18.1673 1.58351 18.1673H17.5835C18.1085 18.1673 18.5835 17.859 18.8002 17.3798C19.0168 16.9007 18.9293 16.3382 18.5793 15.9465L18.271 15.6007C16.971 14.134 16.2502 12.2465 16.2502 10.284V9.50065C16.2502 6.27565 13.9585 3.58398 10.9168 2.96732V2.16732C10.9168 1.42982 10.321 0.833984 9.58351 0.833984ZM11.471 21.3882C11.971 20.8882 12.2502 20.209 12.2502 19.5007H9.58351H6.91684C6.91684 20.209 7.19601 20.8882 7.69601 21.3882C8.19601 21.8882 8.87518 22.1673 9.58351 22.1673C10.2918 22.1673 10.971 21.8882 11.471 21.3882Z" fill="#4B5563"/>
</svg>
