<svg width="37" height="31" viewBox="0 0 37 31" fill="none" xmlns="http://www.w3.org/2000/svg">
<path d="M0.375 30.9902L18.25 0.115234L36.125 30.9902H0.375ZM18.25 26.1152C18.7104 26.1152 19.0966 25.9592 19.4086 25.6472C19.7206 25.3352 19.8761 24.9496 19.875 24.4902C19.8739 24.0309 19.7179 23.6452 19.407 23.3332C19.0961 23.0212 18.7104 22.8652 18.25 22.8652C17.7896 22.8652 17.4039 23.0212 17.093 23.3332C16.7821 23.6452 16.6261 24.0309 16.625 24.4902C16.6239 24.9496 16.7799 25.3358 17.093 25.6489C17.4061 25.9619 17.7917 26.1174 18.25 26.1152ZM16.625 21.2402H19.875V13.1152H16.625V21.2402Z" fill="#DC2626"/>
</svg>
