<svg width="43" height="35" viewBox="0 0 43 35" fill="none" xmlns="http://www.w3.org/2000/svg">
<path d="M7.92616 0.23291C5.8823 0.23291 4.12659 1.67366 3.72452 3.67731L0.293523 20.8323C-0.235869 23.486 1.78788 25.9654 4.49516 25.9654H19.0367V30.2542H14.748C13.5618 30.2542 12.6036 31.2124 12.6036 32.3985C12.6036 33.5846 13.5618 34.5429 14.748 34.5429H27.6142C28.8003 34.5429 29.7586 33.5846 29.7586 32.3985C29.7586 31.2124 28.8003 30.2542 27.6142 30.2542H23.3255V25.9654H37.867C40.5743 25.9654 42.6047 23.4927 42.0753 20.8323L38.6443 3.67731C38.2356 1.67366 36.4799 0.23291 34.436 0.23291H7.92616ZM17.2207 4.52166H25.1415L25.8384 11.4909H16.5238L17.2207 4.52166ZM13.2938 11.4909H6.53231L7.92616 4.52166H13.984L13.2938 11.4909ZM5.889 14.7074H12.9721L12.2752 21.6767H4.49516L5.889 14.7074ZM16.2021 14.7074H26.16L26.857 21.6767H15.5052L16.2021 14.7074ZM29.39 14.7074H36.4732L37.867 21.6767H30.0936L29.39 14.7074ZM35.8231 11.4909H29.0684L28.3714 4.52166H34.4293L36.5335 4.09949L34.436 4.52166L35.8298 11.4909H35.8231Z" fill="#059669"/>
</svg>
