<svg width="29" height="34" viewBox="0 0 29 34" fill="none" xmlns="http://www.w3.org/2000/svg">
<path d="M5.32741 0.542969C4.02994 0.542969 2.9817 1.59121 2.9817 2.88868V7.58011C1.68423 7.58011 0.635986 8.62835 0.635986 9.92583C0.635986 11.2233 1.68423 12.2715 2.9817 12.2715V14.6173C1.68423 14.6173 0.635986 15.6655 0.635986 16.963C0.635986 18.2604 1.68423 19.3087 2.9817 19.3087V24.0001V31.0373C2.9817 32.3347 4.02994 33.383 5.32741 33.383C6.62489 33.383 7.67313 32.3347 7.67313 31.0373V26.3458H13.5374C18.5514 26.3458 22.8983 23.487 25.0314 19.3087H26.4388C27.7363 19.3087 28.7846 18.2604 28.7846 16.963C28.7846 15.6655 27.7363 14.6173 26.4388 14.6173H26.3875C26.4242 14.2287 26.4388 13.8402 26.4388 13.4444C26.4388 13.0486 26.4242 12.66 26.3875 12.2715H26.4388C27.7363 12.2715 28.7846 11.2233 28.7846 9.92583C28.7846 8.62835 27.7363 7.58011 26.4388 7.58011H25.0314C22.8983 3.40181 18.5514 0.542969 13.5374 0.542969H5.32741ZM19.2844 7.58011H7.67313V5.2344H13.5374C15.7732 5.2344 17.8037 6.1287 19.2844 7.58011ZM7.67313 12.2715H21.6668C21.7181 12.6527 21.7474 13.0486 21.7474 13.4444C21.7474 13.8402 21.7181 14.2361 21.6668 14.6173H7.67313V12.2715ZM19.2844 19.3087C17.8037 20.7601 15.7732 21.6544 13.5374 21.6544H7.67313V19.3087H19.2844Z" fill="#10B981"/>
</svg>
