<svg width="30" height="31" viewBox="0 0 30 31" fill="none" xmlns="http://www.w3.org/2000/svg">
<path d="M15 22.1667C14.0833 22.1667 13.2989 21.8406 12.6467 21.1883C11.9944 20.5361 11.6678 19.7511 11.6667 18.8333C11.6656 17.9156 11.9922 17.1311 12.6467 16.48C13.3011 15.8289 14.0856 15.5022 15 15.5C15.9144 15.4978 16.6994 15.8244 17.355 16.48C18.0106 17.1356 18.3367 17.92 18.3333 18.8333C18.33 19.7467 18.0039 20.5317 17.355 21.1883C16.7061 21.845 15.9211 22.1711 15 22.1667ZM7.29167 7.16667H22.7083L26.0417 0.5H3.95833L7.29167 7.16667ZM9 30.5H21C23.5 30.5 25.625 29.6322 27.375 27.8967C29.125 26.1611 30 24.0289 30 21.5C30 20.4444 29.8194 19.4167 29.4583 18.4167C29.0972 17.4167 28.5833 16.5139 27.9167 15.7083L23.5833 10.5H6.41667L2.08333 15.7083C1.41667 16.5139 0.902778 17.4167 0.541667 18.4167C0.180556 19.4167 0 20.4444 0 21.5C0 24.0278 0.868334 26.16 2.605 27.8967C4.34167 29.6333 6.47333 30.5011 9 30.5Z" fill="#F4BE37"/>
</svg>
