<svg width="14" height="14" viewBox="0 0 14 14" fill="none" xmlns="http://www.w3.org/2000/svg">
<path fill-rule="evenodd" clip-rule="evenodd" d="M6.99966 0.333252C7.87514 0.333248 8.74205 0.505683 9.55089 0.840712C10.3597 1.17574 11.0947 1.6668 11.7137 2.28586C12.3328 2.90492 12.8238 3.63984 13.1589 4.44868C13.4939 5.25752 13.6664 6.12443 13.6664 6.99991C13.6664 10.6818 10.6816 13.6666 6.99966 13.6666C3.31779 13.6666 0.333008 10.6818 0.333008 6.99991C0.333008 3.31803 3.31779 0.333252 6.99966 0.333252ZM7.66635 7.6666H6.33301C4.68254 7.6666 3.26557 8.66619 2.65441 10.0931C3.62141 11.4491 5.20729 12.3333 6.99966 12.3333C8.79204 12.3333 10.3779 11.4491 11.3449 10.093C10.7338 8.66619 9.31682 7.6666 7.66635 7.6666ZM6.99966 2.33325C5.8951 2.33325 4.99966 3.22869 4.99966 4.33325C4.99966 5.43781 5.8951 6.33325 6.99966 6.33325C8.10423 6.33325 8.99966 5.43781 8.99966 4.33325C8.99966 3.22869 8.10426 2.33325 6.99966 2.33325Z" fill="#059669"/>
</svg>
