<svg width="43" height="61" viewBox="0 0 43 61" fill="none" xmlns="http://www.w3.org/2000/svg">
<path d="M42.0312 60.4507H0.404297V0.784668H42.0312V60.4507Z" stroke="#E5E7EB"/>
<g clip-path="url(#clip0_1086_10790)">
<path d="M5.60965 13.9664C5.60965 12.5274 4.44702 11.3647 3.00795 11.3647C1.56889 11.3647 0.40625 12.5274 0.40625 13.9664V41.2843C0.40625 44.8779 3.3169 47.7886 6.9105 47.7886H39.4318C40.8708 47.7886 42.0335 46.6259 42.0335 45.1869C42.0335 43.7478 40.8708 42.5852 39.4318 42.5852H6.9105C6.19504 42.5852 5.60965 41.9998 5.60965 41.2843V13.9664ZM38.6675 21.0073C39.6838 19.991 39.6838 18.3406 38.6675 17.3243C37.6512 16.308 36.0008 16.308 34.9845 17.3243L26.4233 25.8936L21.7565 21.2268C20.7402 20.2105 19.0897 20.2105 18.0734 21.2268L8.96747 30.3328C7.95118 31.3491 7.95118 32.9995 8.96747 34.0158C9.98376 35.0321 11.6342 35.0321 12.6505 34.0158L19.919 26.7554L24.5858 31.4222C25.6021 32.4385 27.2526 32.4385 28.2688 31.4222L38.6757 21.0154L38.6675 21.0073Z" fill="#10B981"/>
</g>
<defs>
<clipPath id="clip0_1086_10790">
<path d="M0.405273 8.76318H42.0325V50.3904H0.405273V8.76318Z" fill="white"/>
</clipPath>
</defs>
</svg>
