<svg width="12" height="12" viewBox="0 0 12 12" fill="none" xmlns="http://www.w3.org/2000/svg">
<path fill-rule="evenodd" clip-rule="evenodd" d="M11.1857 0.814561C11.2572 0.88603 11.3531 1.06372 11.3111 1.48325C11.2698 1.8964 11.1008 2.44222 10.7847 3.09278C10.7465 3.17136 10.7072 3.2494 10.6669 3.3269V4.64909C11.9114 2.71181 12.3556 1.04159 11.6571 0.343155C10.9531 -0.360845 9.26175 0.0960609 7.30472 1.36334L7.95718 1.74003C8.2864 1.53815 8.60459 1.36275 8.90753 1.21556C9.55806 0.899499 10.1039 0.730498 10.517 0.689155C10.9366 0.647186 11.1143 0.743124 11.1857 0.814561ZM10.6669 8.67312V7.35094C11.9114 9.28822 12.3556 10.9584 11.6571 11.6569C10.9529 12.3611 9.26059 11.9037 7.30272 10.6354L7.95512 10.2587C8.28509 10.4612 8.60397 10.637 8.90753 10.7845C9.55806 11.1005 10.1039 11.2695 10.5171 11.3109C10.9366 11.3528 11.1143 11.2569 11.1857 11.1855C11.2572 11.114 11.3531 10.9363 11.3111 10.5168C11.2698 10.1036 11.1008 9.55781 10.7847 8.90725C10.7465 8.82867 10.7072 8.75062 10.6669 8.67312ZM4.0454 10.2587L4.69778 10.6354C2.73993 11.9037 1.04765 12.3611 0.343403 11.6569C-0.355034 10.9584 0.0891534 9.28828 1.33359 7.351V8.67319C1.29327 8.75067 1.25401 8.8287 1.21581 8.90725C0.899747 9.55781 0.730747 10.1036 0.689403 10.5168C0.647435 10.9363 0.743372 11.114 0.81481 11.1855C0.886278 11.2569 1.06397 11.3528 1.4835 11.3109C1.89665 11.2695 2.44247 11.1005 3.09303 10.7845C3.39656 10.637 3.71543 10.4612 4.0454 10.2587ZM0.343403 0.343155C-0.355034 1.04159 0.0891534 2.71175 1.33359 4.64903V3.32681C1.29327 3.24934 1.25401 3.17132 1.21581 3.09278C0.899747 2.44222 0.730747 1.8964 0.689403 1.48325C0.647435 1.06372 0.743372 0.88603 0.81481 0.814561C0.886278 0.743124 1.06397 0.647186 1.4835 0.689155C1.89665 0.730498 2.44247 0.899467 3.09303 1.21556C3.39593 1.36272 3.71409 1.53812 4.04334 1.74L4.69578 1.36331C2.73878 0.096061 1.04743 -0.360845 0.343403 0.343155ZM6.00025 1.38L10.0002 3.6894V8.30819L6.00025 10.6176L2.00025 8.30819V3.68937L6.00025 1.38ZM8.6669 5.22787V7.5384L6.6669 8.69309V6.38256L8.6669 5.22787ZM5.33359 6.38256V8.69309L3.33359 7.5384V5.22787L5.33359 6.38256ZM6.00025 5.22784L4.00122 4.07369L6.00025 2.91956L7.99928 4.07369L6.00025 5.22784Z" fill="#059669"/>
</svg>
