<svg width="26" height="21" viewBox="0 0 26 21" fill="none" xmlns="http://www.w3.org/2000/svg">
<path d="M5.79318 0.126953C6.64676 0.126953 7.46538 0.466037 8.06896 1.06961C8.67253 1.67318 9.01161 2.4918 9.01161 3.34539C9.01161 4.19897 8.67253 5.01759 8.06896 5.62116C7.46538 6.22474 6.64676 6.56382 5.79318 6.56382C4.9396 6.56382 4.12098 6.22474 3.5174 5.62116C2.91383 5.01759 2.57475 4.19897 2.57475 3.34539C2.57475 2.4918 2.91383 1.67318 3.5174 1.06961C4.12098 0.466037 4.9396 0.126953 5.79318 0.126953ZM20.598 0.126953C21.4516 0.126953 22.2702 0.466037 22.8737 1.06961C23.4773 1.67318 23.8164 2.4918 23.8164 3.34539C23.8164 4.19897 23.4773 5.01759 22.8737 5.62116C22.2702 6.22474 21.4516 6.56382 20.598 6.56382C19.7444 6.56382 18.9258 6.22474 18.3222 5.62116C17.7186 5.01759 17.3795 4.19897 17.3795 3.34539C17.3795 2.4918 17.7186 1.67318 18.3222 1.06961C18.9258 0.466037 19.7444 0.126953 20.598 0.126953ZM0 12.1438C0 9.77421 1.92301 7.85119 4.29259 7.85119H6.01042C6.65009 7.85119 7.25757 7.992 7.8047 8.24143C7.7524 8.53109 7.72826 8.83282 7.72826 9.13857C7.72826 10.6754 8.40413 12.0553 9.47024 13.0007C9.46219 13.0007 9.45415 13.0007 9.44208 13.0007H0.856908C0.386212 13.0007 0 12.6145 0 12.1438ZM16.3054 13.0007C16.2973 13.0007 16.2893 13.0007 16.2772 13.0007C17.3474 12.0553 18.0192 10.6754 18.0192 9.13857C18.0192 8.83282 17.991 8.53511 17.9428 8.24143C18.4899 7.98798 19.0974 7.85119 19.737 7.85119H21.4549C23.8245 7.85119 25.7475 9.77421 25.7475 12.1438C25.7475 12.6185 25.3613 13.0007 24.8906 13.0007H16.3054ZM9.01161 9.13857C9.01161 8.11427 9.41851 7.13192 10.1428 6.40764C10.8671 5.68335 11.8494 5.27645 12.8737 5.27645C13.898 5.27645 14.8804 5.68335 15.6047 6.40764C16.329 7.13192 16.7359 8.11427 16.7359 9.13857C16.7359 10.1629 16.329 11.1452 15.6047 11.8695C14.8804 12.5938 13.898 13.0007 12.8737 13.0007C11.8494 13.0007 10.8671 12.5938 10.1428 11.8695C9.41851 11.1452 9.01161 10.1629 9.01161 9.13857ZM5.14949 19.6508C5.14949 16.6898 7.55125 14.2881 10.5122 14.2881H15.2353C18.1962 14.2881 20.598 16.6898 20.598 19.6508C20.598 20.2422 20.1192 20.7249 19.5238 20.7249H6.22365C5.63226 20.7249 5.14949 20.2462 5.14949 19.6508Z" fill="#374151"/>
</svg>
