<svg width="32" height="43" viewBox="0 0 32 43" fill="none" xmlns="http://www.w3.org/2000/svg">
<g clip-path="url(#clip0_1086_10811)">
<path d="M22.7687 31.9836C23.5492 29.39 25.1671 27.1786 26.7688 24.9753C27.1916 24.398 27.6144 23.8208 28.0209 23.2354C29.6307 20.9182 30.5738 18.1133 30.5738 15.0807C30.5738 7.16987 24.1671 0.763184 16.2644 0.763184C8.36177 0.763184 1.95508 7.16987 1.95508 15.0725C1.95508 18.1051 2.8982 20.9182 4.508 23.2272C4.91451 23.8126 5.33729 24.3899 5.76007 24.9671C7.36987 27.1705 8.9878 29.39 9.76018 31.9755H22.7687V31.9836ZM16.2644 42.3904C19.858 42.3904 22.7687 39.4798 22.7687 35.8862V34.5853H9.76018V35.8862C9.76018 39.4798 12.6708 42.3904 16.2644 42.3904ZM9.76018 15.0725C9.76018 15.788 9.1748 16.3734 8.45933 16.3734C7.74386 16.3734 7.15848 15.788 7.15848 15.0725C7.15848 10.0399 11.2318 5.96659 16.2644 5.96659C16.9799 5.96659 17.5653 6.55197 17.5653 7.26744C17.5653 7.9829 16.9799 8.56829 16.2644 8.56829C12.6708 8.56829 9.76018 11.4789 9.76018 15.0725Z" fill="#10B981"/>
</g>
<defs>
<clipPath id="clip0_1086_10811">
<path d="M0.65332 0.763184H31.8737V42.3904H0.65332V0.763184Z" fill="white"/>
</clipPath>
</defs>
</svg>
