<svg width="20" height="16" viewBox="0 0 20 16" fill="none" xmlns="http://www.w3.org/2000/svg">
<path fill-rule="evenodd" clip-rule="evenodd" d="M16.1801 0C16.6155 6.78226e-05 17.0389 0.14219 17.3862 0.404788C17.7334 0.667387 17.9855 1.03612 18.1041 1.455L18.1411 1.608L19.8611 10.206C19.9024 10.4125 19.8997 10.6254 19.8533 10.8308C19.8068 11.0363 19.7176 11.2296 19.5915 11.3983C19.4654 11.5669 19.3052 11.7072 19.1213 11.8098C18.9373 11.9124 18.7339 11.9752 18.5241 11.994L18.3901 12H11.0001V14H13.0001C13.255 14.0003 13.5002 14.0979 13.6855 14.2728C13.8708 14.4478 13.9824 14.687 13.9973 14.9414C14.0122 15.1958 13.9295 15.4464 13.7659 15.6418C13.6023 15.8373 13.3702 15.9629 13.1171 15.993L13.0001 16H7.00013C6.74525 15.9997 6.50009 15.9021 6.31476 15.7272C6.12942 15.5522 6.01789 15.313 6.00295 15.0586C5.98802 14.8042 6.0708 14.5536 6.23439 14.3582C6.39798 14.1627 6.63003 14.0371 6.88313 14.007L7.00013 14H9.00012V12H1.61013C1.39949 12 1.19123 11.9556 0.998896 11.8697C0.80656 11.7839 0.634463 11.6584 0.493808 11.5017C0.353154 11.3449 0.247097 11.1602 0.182541 10.9597C0.117985 10.7592 0.0963772 10.5474 0.119125 10.338L0.139125 10.206L1.85913 1.608C1.94438 1.18114 2.16657 0.793757 2.49197 0.504635C2.81737 0.215514 3.2282 0.0404447 3.66213 0.00600004L3.82013 0H16.1801ZM17.1801 7H13.6051L13.9051 10H17.7801L17.1801 7ZM11.5951 7H8.40512L8.10512 10H11.8951L11.5951 7ZM6.39513 7H2.82013L2.22013 10H6.09513L6.39513 7ZM16.1801 2H13.1051L13.4051 5H16.7801L16.1801 2ZM11.0951 2H8.90512L8.60512 5H11.3951L11.0951 2ZM6.89513 2H3.82013L3.22013 5H6.59513L6.89513 2Z" fill="#059669"/>
</svg>
