<svg width="53" height="43" viewBox="0 0 53 43" fill="none" xmlns="http://www.w3.org/2000/svg">
<g clip-path="url(#clip0_1086_10801)">
<path d="M9.96261 0.763184C7.48286 0.763184 5.35272 2.5112 4.8649 4.94217L0.702177 25.7558C0.0598824 28.9754 2.51524 31.9836 5.79989 31.9836H23.4427V37.187H18.2393C16.8002 37.187 15.6376 38.3496 15.6376 39.7887C15.6376 41.2278 16.8002 42.3904 18.2393 42.3904H33.8495C35.2885 42.3904 36.4512 41.2278 36.4512 39.7887C36.4512 38.3496 35.2885 37.187 33.8495 37.187H28.6461V31.9836H46.2889C49.5735 31.9836 52.037 28.9835 51.3947 25.7558L47.232 4.94217C46.736 2.5112 44.6059 0.763184 42.1261 0.763184H9.96261ZM21.2394 5.96659H30.8494L31.6949 14.4221H20.3938L21.2394 5.96659ZM16.475 14.4221H8.2715L9.96261 5.96659H17.3124L16.475 14.4221ZM7.49099 18.3247H16.0847L15.2392 26.7802H5.79989L7.49099 18.3247ZM20.0035 18.3247H32.0852L32.9308 26.7802H19.158L20.0035 18.3247ZM36.004 18.3247H44.5978L46.2889 26.7802H36.8577L36.004 18.3247ZM43.8091 14.4221H35.6138L34.7682 5.96659H42.118L44.6709 5.45438L42.1261 5.96659L43.8172 14.4221H43.8091Z" fill="#10B981"/>
</g>
<defs>
<clipPath id="clip0_1086_10801">
<path d="M0.0273438 0.763184H52.0614V42.3904H0.0273438V0.763184Z" fill="white"/>
</clipPath>
</defs>
</svg>
