<svg width="26" height="21" viewBox="0 0 26 21" fill="none" xmlns="http://www.w3.org/2000/svg">
<path d="M4.91815 0.12793C3.69113 0.12793 2.63709 0.992884 2.39571 2.19577L0.335909 12.4948C0.0180887 14.0879 1.23305 15.5764 2.85836 15.5764H11.5884V18.1512H9.01361C8.30153 18.1512 7.72624 18.7264 7.72624 19.4385C7.72624 20.1506 8.30153 20.7259 9.01361 20.7259H16.7379C17.4499 20.7259 18.0252 20.1506 18.0252 19.4385C18.0252 18.7264 17.4499 18.1512 16.7379 18.1512H14.1631V15.5764H22.8931C24.5184 15.5764 25.7374 14.0919 25.4196 12.4948L23.3598 2.19577C23.1144 0.992884 22.0603 0.12793 20.8333 0.12793H4.91815ZM10.4981 2.70268H15.2533L15.6717 6.88664H10.0797L10.4981 2.70268ZM8.14061 6.88664H4.08136L4.91815 2.70268H8.55498L8.14061 6.88664ZM3.69515 8.8177H7.9475L7.52911 13.0017H2.85836L3.69515 8.8177ZM9.88661 8.8177H15.8648L16.2832 13.0017H9.46821L9.88661 8.8177ZM17.804 8.8177H22.0563L22.8931 13.0017H18.2264L17.804 8.8177ZM21.6661 6.88664H17.6108L17.1925 2.70268H20.8293L22.0925 2.44922L20.8333 2.70268L21.6701 6.88664H21.6661Z" fill="#374151"/>
</svg>
