<svg width="33" height="34" viewBox="0 0 33 34" fill="none" xmlns="http://www.w3.org/2000/svg">
<path d="M23.2217 0.622301C23.5424 0.756977 23.7733 1.04557 23.8374 1.38546L25.1136 8.30524L32.0334 9.57504C32.3733 9.63917 32.6619 9.87004 32.7966 10.1907C32.9312 10.5114 32.8928 10.8769 32.694 11.1655L28.6986 16.963L32.694 22.754C32.8928 23.0426 32.9312 23.4082 32.7966 23.7288C32.6619 24.0495 32.3733 24.2804 32.0334 24.3445L25.1136 25.6207L23.8374 32.5405C23.7733 32.8804 23.5424 33.169 23.2217 33.3036C22.9011 33.4383 22.5355 33.3998 22.247 33.201L16.4559 29.2056L10.6648 33.201C10.3762 33.3998 10.0107 33.4383 9.69003 33.3036C9.36937 33.169 9.1385 32.8804 9.07437 32.5405L7.79816 25.6207L0.878384 24.3445C0.538488 24.2804 0.249897 24.0495 0.115221 23.7288C-0.0194551 23.4082 0.0190237 23.0426 0.217831 22.754L4.21321 16.963L0.217831 11.1719C0.0190237 10.8833 -0.0194551 10.5178 0.115221 10.1971C0.249897 9.87645 0.538488 9.64558 0.878384 9.58145L7.79816 8.30524L9.07437 1.38546C9.1385 1.04557 9.36937 0.756977 9.69003 0.622301C10.0107 0.487625 10.3762 0.526104 10.6648 0.724911L16.4559 4.72029L22.247 0.724911C22.5355 0.526104 22.9011 0.487625 23.2217 0.622301ZM10.2993 16.963C10.2993 15.3301 10.9479 13.7642 12.1025 12.6096C13.2571 11.455 14.8231 10.8064 16.4559 10.8064C18.0887 10.8064 19.6547 11.455 20.8093 12.6096C21.9639 13.7642 22.6125 15.3301 22.6125 16.963C22.6125 18.5958 21.9639 20.1618 20.8093 21.3164C19.6547 22.4709 18.0887 23.1196 16.4559 23.1196C14.8231 23.1196 13.2571 22.4709 12.1025 21.3164C10.9479 20.1618 10.2993 18.5958 10.2993 16.963ZM24.6647 16.963C24.6647 14.7859 23.7998 12.6979 22.2604 11.1585C20.7209 9.61901 18.633 8.75416 16.4559 8.75416C14.2788 8.75416 12.1908 9.61901 10.6514 11.1585C9.11193 12.6979 8.24708 14.7859 8.24708 16.963C8.24708 19.1401 9.11193 21.228 10.6514 22.7675C12.1908 24.3069 14.2788 25.1718 16.4559 25.1718C18.633 25.1718 20.7209 24.3069 22.2604 22.7675C23.7998 21.228 24.6647 19.1401 24.6647 16.963Z" fill="#F59E0B"/>
</svg>
