<svg width="54" height="44" viewBox="0 0 54 44" fill="none" xmlns="http://www.w3.org/2000/svg">
<path d="M12.175 0.865234C13.9321 0.865234 15.6172 1.5731 16.8596 2.83311C18.102 4.09312 18.8 5.80206 18.8 7.58398C18.8 9.36591 18.102 11.0748 16.8596 12.3349C15.6172 13.5949 13.9321 14.3027 12.175 14.3027C10.4179 14.3027 8.73285 13.5949 7.49042 12.3349C6.24799 11.0748 5.55 9.36591 5.55 7.58398C5.55 5.80206 6.24799 4.09312 7.49042 2.83311C8.73285 1.5731 10.4179 0.865234 12.175 0.865234ZM42.65 0.865234C44.4071 0.865234 46.0922 1.5731 47.3346 2.83311C48.577 4.09312 49.275 5.80206 49.275 7.58398C49.275 9.36591 48.577 11.0748 47.3346 12.3349C46.0922 13.5949 44.4071 14.3027 42.65 14.3027C40.8929 14.3027 39.2078 13.5949 37.9654 12.3349C36.723 11.0748 36.025 9.36591 36.025 7.58398C36.025 5.80206 36.723 4.09312 37.9654 2.83311C39.2078 1.5731 40.8929 0.865234 42.65 0.865234ZM0.25 25.9514C0.25 21.0047 4.20844 16.9902 9.08609 16.9902H12.6222C13.9389 16.9902 15.1894 17.2842 16.3156 17.8049C16.208 18.4096 16.1583 19.0395 16.1583 19.6777C16.1583 22.8859 17.5495 25.7666 19.7441 27.7402H2.01391C1.045 27.7402 0.25 26.934 0.25 25.9514ZM33.8139 27.7402H33.7559C35.9588 25.7666 37.3417 22.8859 37.3417 19.6777C37.3417 19.0395 37.2838 18.418 37.1844 17.8049C38.3106 17.2758 39.5611 16.9902 40.8778 16.9902H44.4139C49.2916 16.9902 53.25 21.0047 53.25 25.9514C53.25 26.9424 52.455 27.7402 51.4861 27.7402H33.8222H33.8139ZM18.8 19.6777C18.8 17.5394 19.6376 15.4887 21.1285 13.9767C22.6194 12.4647 24.6415 11.6152 26.75 11.6152C28.8585 11.6152 30.8806 12.4647 32.3715 13.9767C33.8624 15.4887 34.7 17.5394 34.7 19.6777C34.7 21.816 33.8624 23.8668 32.3715 25.3788C30.8806 26.8908 28.8585 27.7402 26.75 27.7402C24.6415 27.7402 22.6194 26.8908 21.1285 25.3788C19.6376 23.8668 18.8 21.816 18.8 19.6777ZM10.85 41.6229C10.85 35.4416 15.7939 30.4277 21.8889 30.4277H31.6028C37.7061 30.4277 42.65 35.4416 42.65 41.6229C42.65 42.8574 41.6645 43.8652 40.4389 43.8652H13.0528C11.8355 43.8652 10.8417 42.8658 10.8417 41.6229H10.85Z" fill="#5388D8"/>
</svg>
