<svg width="30" height="27" viewBox="0 0 30 27" fill="none" xmlns="http://www.w3.org/2000/svg">
<path d="M29.2671 24.0338L29.275 24.0294L26.7981 19.7396H27.7729V19.7352C27.9762 19.7352 28.1411 19.5706 28.1411 19.3673C28.1411 19.3044 28.121 19.2479 28.0935 19.1963L28.0999 19.1925L25.8093 15.2251H26.3666V15.222C26.4363 15.222 26.5031 15.1944 26.5523 15.1451C26.6016 15.0959 26.6293 15.0292 26.6294 14.9595C26.6284 14.9166 26.6167 14.8747 26.5954 14.8375L26.5998 14.8347L23.2672 9.06189L23.2638 9.06393C23.2275 8.98756 23.1704 8.92297 23.0991 8.87762C23.0278 8.83227 22.9451 8.80798 22.8605 8.80757C22.6824 8.80757 22.5314 8.91331 22.4576 9.06325L22.4559 9.06223L19.1232 14.8347C19.1008 14.8725 19.0892 14.9157 19.0882 14.9595C19.0882 15.1044 19.2059 15.222 19.351 15.222V15.2251H19.9158L17.6252 19.1925L17.6262 19.1929C17.595 19.2458 17.5778 19.3058 17.5762 19.3673C17.5762 19.5706 17.7411 19.7352 17.9445 19.7352V19.7396H18.9284L18.2144 20.9765L15.3588 16.0302H16.7344V16.0241C17.0214 16.0241 17.2539 15.7912 17.2539 15.5045C17.2539 15.4161 17.2298 15.3339 17.1907 15.2608L17.1958 15.2577L13.9634 9.65893H14.7498V9.65485C14.7986 9.65489 14.8469 9.64532 14.8919 9.62667C14.937 9.60802 14.9779 9.58067 15.0123 9.54618C15.0468 9.51169 15.0741 9.47074 15.0927 9.42568C15.1113 9.38061 15.1209 9.33232 15.1208 9.28357C15.1208 9.22033 15.1007 9.16355 15.0728 9.11153L15.0793 9.10779L10.3757 0.962407L10.374 0.963427C10.3222 0.855607 10.241 0.764592 10.1398 0.70084C10.0386 0.637088 9.92143 0.603185 9.80181 0.603027C9.54409 0.603027 9.32309 0.756707 9.22245 0.977027L4.52807 9.10779L4.52909 9.10847C4.49754 9.16166 4.48021 9.22208 4.47877 9.28391C4.47868 9.33263 4.4882 9.3809 4.50678 9.42594C4.52537 9.47098 4.55265 9.51192 4.58707 9.5464C4.6215 9.58089 4.66238 9.60825 4.70739 9.62691C4.7524 9.64558 4.80064 9.65519 4.84937 9.65519V9.65927H5.64667L2.45237 15.1917C2.3828 15.2812 2.345 15.3912 2.34493 15.5045C2.34493 15.7915 2.57783 16.0241 2.86445 16.0241V16.0302H4.25301L0.805408 22.0023C0.723808 22.109 0.673828 22.241 0.673828 22.3858C0.673828 22.7367 0.958748 23.0216 1.30997 23.0216V23.0287H8.03483V25.8949C8.03483 26.172 8.25957 26.3971 8.53667 26.3971H11.0469C11.324 26.3971 11.5491 26.1724 11.5491 25.8949V23.0287H17.0299L16.4522 24.0294L16.4532 24.03C16.4179 24.0943 16.392 24.1647 16.392 24.2436C16.392 24.4924 16.5936 24.6941 16.8425 24.6941V24.6992H21.608V26.0391C21.608 26.2356 21.7674 26.3947 21.9636 26.3947H23.7425C23.939 26.3947 24.0981 26.2356 24.0981 26.0391V24.6992H28.8751V24.6941C29.124 24.6941 29.326 24.4924 29.326 24.2436C29.3242 24.1698 29.304 24.0977 29.2671 24.0338Z" fill="#059669"/>
</svg>
