<svg width="26" height="34" viewBox="0 0 26 34" fill="none" xmlns="http://www.w3.org/2000/svg">
<path d="M20.9445 3.30819C21.3229 2.42956 21.0407 1.40343 20.2647 0.839059C19.4887 0.274686 18.4305 0.325993 17.7058 0.954499L1.28765 15.3204C0.646316 15.8847 0.415436 16.789 0.716863 17.5843C1.01829 18.3795 1.78789 18.9182 2.64086 18.9182H9.79172L4.85987 30.4237C4.48149 31.3024 4.76367 32.3285 5.53969 32.8929C6.3157 33.4572 7.3739 33.4059 8.09861 32.7774L24.5167 18.4116C25.1581 17.8472 25.3889 16.9429 25.0875 16.1477C24.7861 15.3524 24.0229 14.8201 23.1635 14.8201H16.0127L20.9445 3.30819Z" fill="#F6C43B"/>
</svg>
