<svg width="44" height="35" viewBox="0 0 44 35" fill="none" xmlns="http://www.w3.org/2000/svg">
<path d="M5.02552 4.61463V23.9127H39.3332V4.61463H5.02552ZM0.737061 4.61463C0.737061 2.24928 2.66017 0.326172 5.02552 0.326172H39.3332C41.6986 0.326172 43.6217 2.24928 43.6217 4.61463V23.9127C43.6217 26.2781 41.6986 28.2012 39.3332 28.2012H5.02552C2.66017 28.2012 0.737061 26.2781 0.737061 23.9127V4.61463ZM9.31398 30.3454H35.0448C36.2308 30.3454 37.189 31.3036 37.189 32.4896C37.189 33.6757 36.2308 34.6339 35.0448 34.6339H9.31398C8.12796 34.6339 7.16975 33.6757 7.16975 32.4896C7.16975 31.3036 8.12796 30.3454 9.31398 30.3454Z" fill="#374151"/>
</svg>
