<svg width="38" height="34" viewBox="0 0 38 34" fill="none" xmlns="http://www.w3.org/2000/svg">
<path d="M4.92751 2.88868C4.92751 1.59121 3.87927 0.542969 2.5818 0.542969C1.28433 0.542969 0.236084 1.59121 0.236084 2.88868V27.5187C0.236084 30.7587 2.86035 33.383 6.10037 33.383H35.4218C36.7193 33.383 37.7675 32.3347 37.7675 31.0373C37.7675 29.7398 36.7193 28.6915 35.4218 28.6915H6.10037C5.4553 28.6915 4.92751 28.1638 4.92751 27.5187V2.88868ZM34.7327 9.23677C35.649 8.32048 35.649 6.83242 34.7327 5.91612C33.8165 4.99983 32.3284 4.99983 31.4121 5.91612L23.6932 13.6423L19.4856 9.43469C18.5693 8.5184 17.0812 8.5184 16.165 9.43469L7.95495 17.6447C7.03866 18.561 7.03866 20.049 7.95495 20.9653C8.87125 21.8816 10.3593 21.8816 11.2756 20.9653L17.8289 14.4193L22.0366 18.627C22.9529 19.5433 24.4409 19.5433 25.3572 18.627L34.7401 9.2441L34.7327 9.23677Z" fill="#10B981"/>
</svg>
