<svg width="27" height="26" viewBox="0 0 27 26" fill="none" xmlns="http://www.w3.org/2000/svg">
<path d="M13.4999 0.199219C15.1796 0.199219 16.7905 0.866479 17.9783 2.05421C19.166 3.24194 19.8333 4.85285 19.8333 6.53255C19.8333 8.21226 19.166 9.82316 17.9783 11.0109C16.7905 12.1986 15.1796 12.8659 13.4999 12.8659C11.8202 12.8659 10.2093 12.1986 9.02158 11.0109C7.83385 9.82316 7.16659 8.21226 7.16659 6.53255C7.16659 4.85285 7.83385 3.24194 9.02158 2.05421C10.2093 0.866479 11.8202 0.199219 13.4999 0.199219ZM13.4999 16.0326C20.4983 16.0326 26.1666 18.8667 26.1666 22.3659V25.5326H0.833252V22.3659C0.833252 18.8667 6.50159 16.0326 13.4999 16.0326Z" fill="#059669"/>
</svg>
