<svg width="16" height="19" viewBox="0 0 16 19" fill="none" xmlns="http://www.w3.org/2000/svg">
<path d="M2.57475 0.414062C1.86267 0.414062 1.28737 0.989357 1.28737 1.70144V4.27618C0.575295 4.27618 0 4.85148 0 5.56356C0 6.27563 0.575295 6.85093 1.28737 6.85093V8.1383C0.575295 8.1383 0 8.7136 0 9.42568C0 10.1378 0.575295 10.713 1.28737 10.713V13.2878V17.1499C1.28737 17.862 1.86267 18.4373 2.57475 18.4373C3.28682 18.4373 3.86212 17.862 3.86212 17.1499V14.5752H7.08055C9.83231 14.5752 12.218 13.0062 13.3887 10.713H14.1611C14.8732 10.713 15.4485 10.1378 15.4485 9.42568C15.4485 8.7136 14.8732 8.1383 14.1611 8.1383H14.1329C14.1531 7.92508 14.1611 7.71186 14.1611 7.49462C14.1611 7.27737 14.1531 7.06415 14.1329 6.85093H14.1611C14.8732 6.85093 15.4485 6.27563 15.4485 5.56356C15.4485 4.85148 14.8732 4.27618 14.1611 4.27618H13.3887C12.218 1.98305 9.83231 0.414062 7.08055 0.414062H2.57475ZM10.2346 4.27618H3.86212V2.98881H7.08055C8.30758 2.98881 9.42196 3.47962 10.2346 4.27618ZM3.86212 6.85093H11.5421C11.5703 7.06013 11.5864 7.27737 11.5864 7.49462C11.5864 7.71186 11.5703 7.9291 11.5421 8.1383H3.86212V6.85093ZM10.2346 10.713C9.42196 11.5096 8.30758 12.0004 7.08055 12.0004H3.86212V10.713H10.2346Z" fill="#374151"/>
</svg>
